<?xml version="1.0" encoding="UTF-8"?>
<svg width="182px" height="199px" viewBox="0 0 182 199" version="1.1" xmlns="http://www.w3.org/2000/svg" xmlns:xlink="http://www.w3.org/1999/xlink">
    <!-- Generator: Sketch 51.2 (57519) - http://www.bohemiancoding.com/sketch -->
    <title>prem-cup</title>
    <desc>Created with Sketch.</desc>
    <defs>
        <path d="M146.457776,53.5823365 C140.074885,68.5436833 123.054554,84.5736978 125.182897,70.6810186 C127.310171,56.7883394 127.136996,47.1703307 130.501082,47.1703307 C131.564719,47.1703307 132.628356,47.1703307 133.693062,45.0329955 C133.693062,45.0329955 137.947611,30.0716486 143.266865,32.2089839 C148.58505,34.3463192 151.344092,42.1272882 146.457776,53.5823365 M35.5420594,53.5823365 C30.656215,42.1272882 33.4145417,34.3463192 38.733336,32.2089839 C44.0521304,30.0716486 48.3071658,45.0329955 48.3071658,45.0329955 C49.3709247,47.1703307 50.4346836,47.1703307 51.4984424,47.1703307 C54.8631117,47.1703307 54.689719,56.7883394 56.8172368,70.6810186 C58.9447545,84.5736978 41.9246126,68.5436833 35.5420594,53.5823365 M158.592885,34.5239562 C150.031009,20.6828221 142.540309,26.0063352 142.540309,26.0063352 C142.540309,26.0063352 130.767057,30.2651457 124.346457,28.1357404 C117.924781,26.0063352 91.1690537,26.0063352 91.1690537,26.0063352 C91.1690537,26.0063352 64.282118,26.0063352 57.8292534,28.1357404 C51.3763888,30.2651457 39.5461371,26.0063352 39.5461371,26.0063352 C39.5461371,26.0063352 32.0177951,20.6828221 23.4139756,34.5239562 C14.8101562,48.3650903 48.1499565,80.306169 51.3763888,82.4355743 C54.6028211,84.5649795 61.0556857,86.6943848 62.1311631,96.2767084 C63.2066405,105.859032 63.2066405,111.182545 70.7349826,114.376653 C78.2633246,117.570761 79.338802,131.411895 79.338802,135.670706 C79.338802,139.929516 77.1878471,151.641245 69.6595051,159.094163 C63.0700549,165.617596 58.1293116,168.877716 61.3256305,170.303352 C63.2733201,172.389105 75.8875949,174 91.1690537,174 C106.783911,174 119.621885,172.318835 121.13293,170.167071 C123.742039,168.674357 118.930353,165.417432 112.574281,159.094163 C105.082505,151.641245 102.942305,139.929516 102.942305,135.670706 C102.942305,131.411895 104.012405,117.570761 111.504181,114.376653 C118.994881,111.182545 118.994881,105.859032 120.064981,96.2767084 C121.135081,86.6943848 127.556757,84.5649795 130.767057,82.4355743 C133.978433,80.306169 167.154761,48.3650903 158.592885,34.5239562" id="path-1"></path>
        <filter x="-20.7%" y="-20.3%" width="141.3%" height="139.4%" filterUnits="objectBoundingBox" id="filter-2">
            <feMorphology radius="3" operator="dilate" in="SourceAlpha" result="shadowSpreadOuter1"></feMorphology>
            <feOffset dx="0" dy="0" in="shadowSpreadOuter1" result="shadowOffsetOuter1"></feOffset>
            <feGaussianBlur stdDeviation="6.5" in="shadowOffsetOuter1" result="shadowBlurOuter1"></feGaussianBlur>
            <feColorMatrix values="0 0 0 0 0   0 0 0 0 0   0 0 0 0 0  0 0 0 0.5 0" type="matrix" in="shadowBlurOuter1"></feColorMatrix>
        </filter>
    </defs>
    <g id="prem-cup" stroke="none" stroke-width="1" fill="none" fill-rule="evenodd">
        <g id="Fill-1">
            <use fill="black" fill-opacity="1" filter="url(#filter-2)" xlink:href="#path-1"></use>
            <use fill="#FFFFFF" fill-rule="evenodd" xlink:href="#path-1"></use>
        </g>
    </g>
</svg>